<mxfile host="app.diagrams.net" modified="2024-01-28T14:24:28.867Z" agent="Mozilla/5.0 (Windows NT 10.0; Win64; x64) AppleWebKit/537.36 (KHTML, like Gecko) Chrome/120.0.0.0 Safari/537.36" etag="JPQTCb-GEnCznnRLUnSg" version="21.6.5" type="device">
  <diagram name="Страница 1" id="5kOuzlwEbrfGC3WtXYWf">
    <mxGraphModel dx="880" dy="468" grid="1" gridSize="10" guides="1" tooltips="1" connect="1" arrows="1" fold="1" page="1" pageScale="1" pageWidth="827" pageHeight="1169" math="0" shadow="0">
      <root>
        <mxCell id="0" />
        <mxCell id="1" parent="0" />
        <mxCell id="Zh4T4F3iG2zg-30kRCg_-6" style="edgeStyle=orthogonalEdgeStyle;rounded=0;orthogonalLoop=1;jettySize=auto;html=1;entryX=0.5;entryY=0;entryDx=0;entryDy=0;" edge="1" parent="1" source="Zh4T4F3iG2zg-30kRCg_-1" target="Zh4T4F3iG2zg-30kRCg_-5">
          <mxGeometry relative="1" as="geometry" />
        </mxCell>
        <mxCell id="Zh4T4F3iG2zg-30kRCg_-1" value="someArray=[&quot;111&quot;, &quot;22&quot;, &quot;sdffs&quot;, &quot;kjkkfj&quot;, &quot;fhfhfh&quot;]&lt;br&gt;&lt;div style=&quot;font-family: Consolas, &amp;quot;Courier New&amp;quot;, monospace; font-size: 14px; line-height: 19px;&quot;&gt;newArrayOfStringsTreeOrLess = []&lt;/div&gt;" style="rounded=0;whiteSpace=wrap;html=1;align=left;fillColor=#d5e8d4;strokeColor=#82b366;" vertex="1" parent="1">
          <mxGeometry x="218.75" y="150" width="282.5" height="50" as="geometry" />
        </mxCell>
        <mxCell id="Zh4T4F3iG2zg-30kRCg_-4" style="edgeStyle=orthogonalEdgeStyle;rounded=0;orthogonalLoop=1;jettySize=auto;html=1;" edge="1" parent="1" source="Zh4T4F3iG2zg-30kRCg_-2" target="Zh4T4F3iG2zg-30kRCg_-1">
          <mxGeometry relative="1" as="geometry" />
        </mxCell>
        <mxCell id="Zh4T4F3iG2zg-30kRCg_-2" value="&lt;font style=&quot;font-size: 21px;&quot;&gt;start&lt;/font&gt;" style="ellipse;whiteSpace=wrap;html=1;fillColor=#f8cecc;strokeColor=#b85450;" vertex="1" parent="1">
          <mxGeometry x="300" y="40" width="120" height="80" as="geometry" />
        </mxCell>
        <mxCell id="Zh4T4F3iG2zg-30kRCg_-8" style="edgeStyle=orthogonalEdgeStyle;rounded=0;orthogonalLoop=1;jettySize=auto;html=1;entryX=0.5;entryY=0;entryDx=0;entryDy=0;" edge="1" parent="1" source="Zh4T4F3iG2zg-30kRCg_-5" target="Zh4T4F3iG2zg-30kRCg_-7">
          <mxGeometry relative="1" as="geometry" />
        </mxCell>
        <mxCell id="Zh4T4F3iG2zg-30kRCg_-19" style="edgeStyle=orthogonalEdgeStyle;rounded=0;orthogonalLoop=1;jettySize=auto;html=1;entryX=-0.025;entryY=0.375;entryDx=0;entryDy=0;entryPerimeter=0;" edge="1" parent="1" source="Zh4T4F3iG2zg-30kRCg_-5" target="Zh4T4F3iG2zg-30kRCg_-18">
          <mxGeometry relative="1" as="geometry" />
        </mxCell>
        <mxCell id="Zh4T4F3iG2zg-30kRCg_-5" value="&lt;font style=&quot;font-size: 16px;&quot;&gt;for each element in someArray:&lt;/font&gt;" style="shape=hexagon;perimeter=hexagonPerimeter2;whiteSpace=wrap;html=1;fixedSize=1;fillColor=#fff2cc;strokeColor=#d6b656;" vertex="1" parent="1">
          <mxGeometry x="207.5" y="240" width="305" height="60" as="geometry" />
        </mxCell>
        <mxCell id="Zh4T4F3iG2zg-30kRCg_-9" style="edgeStyle=orthogonalEdgeStyle;rounded=0;orthogonalLoop=1;jettySize=auto;html=1;entryX=0;entryY=0.5;entryDx=0;entryDy=0;" edge="1" parent="1" source="Zh4T4F3iG2zg-30kRCg_-7" target="Zh4T4F3iG2zg-30kRCg_-5">
          <mxGeometry relative="1" as="geometry">
            <Array as="points">
              <mxPoint x="150" y="360" />
              <mxPoint x="150" y="270" />
            </Array>
          </mxGeometry>
        </mxCell>
        <mxCell id="Zh4T4F3iG2zg-30kRCg_-12" style="edgeStyle=orthogonalEdgeStyle;rounded=0;orthogonalLoop=1;jettySize=auto;html=1;entryX=0.5;entryY=0;entryDx=0;entryDy=0;" edge="1" parent="1" source="Zh4T4F3iG2zg-30kRCg_-7" target="Zh4T4F3iG2zg-30kRCg_-11">
          <mxGeometry relative="1" as="geometry" />
        </mxCell>
        <mxCell id="Zh4T4F3iG2zg-30kRCg_-7" value="element &amp;lt;= 3" style="rounded=0;whiteSpace=wrap;html=1;fillColor=#dae8fc;strokeColor=#6c8ebf;" vertex="1" parent="1">
          <mxGeometry x="300" y="330" width="120" height="60" as="geometry" />
        </mxCell>
        <mxCell id="Zh4T4F3iG2zg-30kRCg_-10" value="No" style="text;html=1;align=center;verticalAlign=middle;resizable=0;points=[];autosize=1;strokeColor=none;fillColor=none;" vertex="1" parent="1">
          <mxGeometry x="260" y="330" width="40" height="30" as="geometry" />
        </mxCell>
        <mxCell id="Zh4T4F3iG2zg-30kRCg_-17" style="edgeStyle=orthogonalEdgeStyle;rounded=0;orthogonalLoop=1;jettySize=auto;html=1;" edge="1" parent="1" source="Zh4T4F3iG2zg-30kRCg_-11">
          <mxGeometry relative="1" as="geometry">
            <mxPoint x="150" y="360" as="targetPoint" />
          </mxGeometry>
        </mxCell>
        <mxCell id="Zh4T4F3iG2zg-30kRCg_-11" value="&lt;span style=&quot;color: rgb(0, 0, 0); font-family: Consolas, &amp;quot;Courier New&amp;quot;, monospace; font-size: 14px; font-style: normal; font-variant-ligatures: normal; font-variant-caps: normal; font-weight: 400; letter-spacing: normal; orphans: 2; text-align: left; text-indent: 0px; text-transform: none; widows: 2; word-spacing: 0px; -webkit-text-stroke-width: 0px; text-decoration-thickness: initial; text-decoration-style: initial; text-decoration-color: initial; float: none; display: inline !important;&quot;&gt;newArrayOfStringsTreeOrLess.appand(element)&lt;/span&gt;" style="rounded=0;whiteSpace=wrap;html=1;fillColor=#dae8fc;strokeColor=#6c8ebf;" vertex="1" parent="1">
          <mxGeometry x="175" y="450" width="370" height="50" as="geometry" />
        </mxCell>
        <mxCell id="Zh4T4F3iG2zg-30kRCg_-15" value="Yes" style="text;html=1;align=center;verticalAlign=middle;resizable=0;points=[];autosize=1;strokeColor=none;fillColor=none;" vertex="1" parent="1">
          <mxGeometry x="360" y="390" width="40" height="30" as="geometry" />
        </mxCell>
        <mxCell id="Zh4T4F3iG2zg-30kRCg_-18" value="Print(newArrayOfStringsTreeOrLess)" style="shape=document;whiteSpace=wrap;html=1;boundedLbl=1;fillColor=#f8cecc;strokeColor=#b85450;" vertex="1" parent="1">
          <mxGeometry x="620" y="240" width="210" height="80" as="geometry" />
        </mxCell>
        <mxCell id="Zh4T4F3iG2zg-30kRCg_-20" value="End" style="text;html=1;align=center;verticalAlign=middle;resizable=0;points=[];autosize=1;strokeColor=none;fillColor=none;" vertex="1" parent="1">
          <mxGeometry x="520" y="240" width="40" height="30" as="geometry" />
        </mxCell>
      </root>
    </mxGraphModel>
  </diagram>
</mxfile>
